<?xml version="1.0" encoding="UTF-8" standalone="no"?>
<!-- Generator: Adobe Illustrator 18.0.0, SVG Export Plug-In . SVG Version: 6.00 Build 0)  -->

<svg
   xmlns:dc="http://purl.org/dc/elements/1.1/"
   xmlns:cc="http://creativecommons.org/ns#"
   xmlns:rdf="http://www.w3.org/1999/02/22-rdf-syntax-ns#"
   xmlns:svg="http://www.w3.org/2000/svg"
   xmlns="http://www.w3.org/2000/svg"
   xmlns:sodipodi="http://sodipodi.sourceforge.net/DTD/sodipodi-0.dtd"
   xmlns:inkscape="http://www.inkscape.org/namespaces/inkscape"
   version="1.1"
   id="Capa_1"
   x="0px"
   y="0px"
   viewBox="0 0 50 50"
   style="enable-background:new 0 0 50 50;"
   xml:space="preserve"
   sodipodi:docname="roller_shutter.svg"
   inkscape:version="0.92.1 r15371"><metadata
     id="metadata39"><rdf:RDF><cc:Work
         rdf:about=""><dc:format>image/svg+xml</dc:format><dc:type
           rdf:resource="http://purl.org/dc/dcmitype/StillImage" /></cc:Work></rdf:RDF></metadata><defs
     id="defs37" /><sodipodi:namedview
     pagecolor="#ffffff"
     bordercolor="#666666"
     borderopacity="1"
     objecttolerance="10"
     gridtolerance="10"
     guidetolerance="10"
     inkscape:pageopacity="0"
     inkscape:pageshadow="2"
     inkscape:window-width="1920"
     inkscape:window-height="1147"
     id="namedview35"
     showgrid="false"
     inkscape:zoom="11.313708"
     inkscape:cx="-2.6989759"
     inkscape:cy="10.429471"
     inkscape:window-x="-8"
     inkscape:window-y="-8"
     inkscape:window-maximized="1"
     inkscape:current-layer="Capa_1" /><path
     d="M 45.5,13.25 V 41.625 H 48.5 C 49.329,41.625 50,42.296 50,43.125 50,43.954 49.329,44.625 48.5,44.625 H 1.5 C 0.671,44.625 0,43.954 0,43.125 0,42.296 0.671,41.625 1.5,41.625 H 4.5 V 13.25 H 1.5 C 0.671,13.25 0,12.579 0,11.75 V 6.875 C 0,6.046 0.671,5.375 1.5,5.375 H 48.5 C 49.329,5.375 50,6.046 50,6.875 V 11.75 C 50,12.579 49.329,13.25 48.5,13.25 Z M 42.5,13.25 H 7.5 V 41.625 H 42.5 Z"
     id="path2"
     inkscape:connector-curvature="0"
     sodipodi:nodetypes="ccssssssccsssssssscccacc" /><g
     id="g4" /><g
     id="g6" /><g
     id="g8" /><g
     id="g10" /><g
     id="g12" /><g
     id="g14" /><g
     id="g16" /><g
     id="g18" /><g
     id="g20" /><g
     id="g22" /><g
     id="g24" /><g
     id="g26" /><g
     id="g28" /><g
     id="g30" /><g
     id="g32" /><path
     id="path4559"
     d="M 10.5,19.1 C 10.5,18.271 11.171,17.6 12,17.6 H 38 C 38.829,17.6 39.5,18.271 39.5,19.1 39.5,19.929 38.829,20.6 38,20.6 H 12 C 11.171,20.6 10.5,19.929 10.5,19.1 Z"
     inkscape:connector-curvature="0"
     sodipodi:nodetypes="sssssss"><title
       id="title4606">level_1</title></path><path
     id="path4559-2"
     d="M 10.5,24.7 C 10.5,23.871 11.171,23.2 12,23.2 H 38 C 38.829,23.2 39.5,23.871 39.5,24.7 39.5,25.529 38.829,26.2 38,26.2 H 12 C 11.171,26.2 10.5,25.529 10.5,24.7 Z"
     inkscape:connector-curvature="0"
     sodipodi:nodetypes="sssssss"
     style="opacity:1"><title
       id="title4608">level_2</title></path><path
     id="path4559-2-6"
     d="M 10.5,30.3 C 10.5,29.471 11.171,28.8 12,28.8 H 38 C 38.829,28.8 39.5,29.471 39.5,30.3 39.5,31.129 38.829,31.8 38,31.8 H 12 C 11.171,31.8 10.5,31.129 10.5,30.3 Z"
     inkscape:connector-curvature="0"
     sodipodi:nodetypes="sssssss"
     style="opacity:1"><title
       id="title4610">level_3</title></path><path
     id="path4559-2-5"
     d="M 10.5,35.9 C 10.5,35.071 11.171,34.4 12,34.4 H 38 C 38.829,34.4 39.5,35.071 39.5,35.9 39.5,36.729 38.829,37.4 38,37.4 H 12 C 11.171,37.4 10.5,36.729 10.5,35.9 Z"
     inkscape:connector-curvature="0"
     sodipodi:nodetypes="sssssss"
     style="opacity:1"><title
       id="title4612">level_4</title></path></svg>