<?xml version="1.0" encoding="UTF-8" standalone="no"?>
<!-- Generator: Adobe Illustrator 16.0.0, SVG Export Plug-In . SVG Version: 6.00 Build 0)  -->

<svg
   xmlns:dc="http://purl.org/dc/elements/1.1/"
   xmlns:cc="http://creativecommons.org/ns#"
   xmlns:rdf="http://www.w3.org/1999/02/22-rdf-syntax-ns#"
   xmlns:svg="http://www.w3.org/2000/svg"
   xmlns="http://www.w3.org/2000/svg"
   xmlns:sodipodi="http://sodipodi.sourceforge.net/DTD/sodipodi-0.dtd"
   xmlns:inkscape="http://www.inkscape.org/namespaces/inkscape"
   version="1.1"
   id="Capa_1"
   x="0px"
   y="0px"
   width="576.219px"
   height="576.219px"
   viewBox="0 0 576.219 576.219"
   style="enable-background:new 0 0 576.219 576.219;"
   xml:space="preserve"
   sodipodi:docname="thermometer.svg"
   inkscape:version="0.92.1 r15371"><metadata
     id="metadata3733"><rdf:RDF><cc:Work
         rdf:about=""><dc:format>image/svg+xml</dc:format><dc:type
           rdf:resource="http://purl.org/dc/dcmitype/StillImage" /><dc:title /></cc:Work></rdf:RDF></metadata><defs
     id="defs3731" /><sodipodi:namedview
     pagecolor="#ffffff"
     bordercolor="#666666"
     borderopacity="1"
     objecttolerance="10"
     gridtolerance="10"
     guidetolerance="10"
     inkscape:pageopacity="0"
     inkscape:pageshadow="2"
     inkscape:window-width="1920"
     inkscape:window-height="1147"
     id="namedview3729"
     showgrid="false"
     inkscape:zoom="2"
     inkscape:cx="340.49597"
     inkscape:cy="256.68268"
     inkscape:window-x="-8"
     inkscape:window-y="-8"
     inkscape:window-maximized="1"
     inkscape:current-layer="Capa_1" /><g
     id="g3696"
     transform="matrix(1,0,0,0.98958728,0,3)"><path
       d="M 323.577 408.949 V 323.58843 H 254.64 L 253.93289 406.35969 C 229.95989 418.59369 214.201 444.10305 214.201 472.81205 214.201 513.56405 247.356 546.71805 288.109 546.71805 328.862 546.71805 362.017 513.56405 362.017 472.81205 362.017 444.10405 345.552 421.18405 321.577 408.94905 Z M 318.681 482.906 C 308.363 482.906 299.995 474.539 299.995 464.22 299.995 453.901 308.352 445.534 318.681 445.534 328.999 445.534 337.365 453.901 337.365 464.22 337.365 474.539 328.999 482.906 318.681 482.906 Z"
       id="path3680"
       inkscape:connector-curvature="0"
       sodipodi:nodetypes="scccssscssssss"><title
         id="title3855">cur_temp</title></path><path
       d="M 350.265 390.225 V 46.349 C 350.265 17.757 328.894 0 294.487 0 H 284.131 C 249.333 0 225.952 18.628 225.952 46.349 V 390.224 C 200.915 409.113 184.702 439.103 184.702 472.812 184.702 529.83 231.09 576.218 288.11 576.218 345.13 576.218 391.517 529.829 391.517 472.812 391.517 439.104 375.302 409.113 350.265 390.225 Z M 288.109 566.219 C 236.521 566.219 194.701 524.399 194.701 472.813 194.701 445.094 206.778 420.202 225.952 403.094 228.971 400.401 232.163 397.901 235.514 395.612 V 46.349 C 235.514 19.192 261.696 9.562 284.12 9.562 H 294.475 C 305.319 9.562 340.7 12.211 340.7 46.349 V 395.613 C 344.052 397.9 347.245 400.402 350.262 403.095 369.436 420.2 381.514 445.095 381.514 472.812 381.517 524.4 339.696 566.219 288.109 566.219 Z"
       id="path3694"
       inkscape:connector-curvature="0" /></g><g
     id="g3698" /><g
     id="g3700" /><g
     id="g3702" /><g
     id="g3704" /><g
     id="g3706" /><g
     id="g3708" /><g
     id="g3710" /><g
     id="g3712" /><g
     id="g3714" /><g
     id="g3716" /><g
     id="g3718" /><g
     id="g3720" /><g
     id="g3722" /><g
     id="g3724" /><g
     id="g3726" /><text
     xml:space="preserve"
     style="font-style:normal;font-weight:normal;font-size:40px;line-height:1.25;font-family:sans-serif;letter-spacing:0px;word-spacing:0px;fill:#000000;fill-opacity:1;stroke:none"
     x="355.6221"
     y="338.4295"
     id="text3819"><title
       id="title3853">min_label</title><tspan
       sodipodi:role="line"
       id="tspan3817"
       x="355.6221"
       y="338.4295"
       style="font-size:32px">min</tspan></text>
<text
     xml:space="preserve"
     style="font-style:normal;font-weight:normal;font-size:40px;line-height:1.25;font-family:sans-serif;letter-spacing:0px;word-spacing:0px;fill:#000000;fill-opacity:1;stroke:none"
     x="356.38217"
     y="60.901962"
     id="text3819-3"><title
       id="title3851">max_label</title><tspan
       sodipodi:role="line"
       id="tspan3817-6"
       x="356.38217"
       y="60.901962"
       style="font-size:32px">max</tspan></text>
<rect
     id="rect59"
     width="55.043415"
     height="1"
     x="260.43237"
     y="47.718994"
     style="stroke-width:0.86797136;fill:none"><title
       id="title63">max_temp</title></rect><rect
     id="rect69"
     width="66.860001"
     height="1"
     x="254.64"
     y="323.21899"
     ry="0.099974737"
     style="stroke-width:0.64888567"><title
       id="title45">min_temp</title></rect><path
     style="stroke-width:0.17677669;fill:none"
     d="M 260.5019 48.204869 V 47.762927 H 287.99068 315.47945 V 48.204869 48.646811 H 287.99068 260.5019 Z"
     id="path53"
     inkscape:connector-curvature="0" /></svg>
