<?xml version="1.0" encoding="UTF-8" standalone="no"?>
<svg
   xmlns:dc="http://purl.org/dc/elements/1.1/"
   xmlns:cc="http://creativecommons.org/ns#"
   xmlns:rdf="http://www.w3.org/1999/02/22-rdf-syntax-ns#"
   xmlns:svg="http://www.w3.org/2000/svg"
   xmlns="http://www.w3.org/2000/svg"
   xmlns:sodipodi="http://sodipodi.sourceforge.net/DTD/sodipodi-0.dtd"
   xmlns:inkscape="http://www.inkscape.org/namespaces/inkscape"
   version="1"
   viewBox="0 0 48 48"
   enable-background="new 0 0 48 48"
   id="svg12"
   sodipodi:docname="webcam.svg"
   inkscape:version="0.92.1 r15371">
  <metadata
     id="metadata18">
    <rdf:RDF>
      <cc:Work
         rdf:about="">
        <dc:format>image/svg+xml</dc:format>
        <dc:type
           rdf:resource="http://purl.org/dc/dcmitype/StillImage" />
      </cc:Work>
    </rdf:RDF>
  </metadata>
  <defs
     id="defs16" />
  <sodipodi:namedview
     pagecolor="#ffffff"
     bordercolor="#666666"
     borderopacity="1"
     objecttolerance="10"
     gridtolerance="10"
     guidetolerance="10"
     inkscape:pageopacity="0"
     inkscape:pageshadow="2"
     inkscape:window-width="1920"
     inkscape:window-height="1147"
     id="namedview14"
     showgrid="false"
     inkscape:zoom="6.9532167"
     inkscape:cx="1.2956305"
     inkscape:cy="33.26095"
     inkscape:window-x="-8"
     inkscape:window-y="-8"
     inkscape:window-maximized="1"
     inkscape:current-layer="svg12" />
  <path
     d="M 36.5,44 H 11.5 C 10.4,44 9.7,42.8 10.2,41.8 L 13,37 H 35 L 37.7,41.8 C 38.3,42.8 37.6,44 36.5,44 Z"
     id="path2"
     inkscape:connector-curvature="0"
     style="fill:#455a64" />
  <circle
     cx="24"
     cy="23"
     r="18"
     id="circle4"
     style="fill:#78909c" />
  <path
     d="M 24,35 C 17.4,35 12,29.6 12,23 12,16.4 17.4,11 24,11 30.6,11 36,16.4 36,23 36,29.6 30.6,35 24,35 Z"
     id="path6"
     inkscape:connector-curvature="0"
     style="fill:#455a64" />
  <circle
     cx="24"
     cy="23"
     r="9"
     id="circle8"
     style="fill:#42a5f5;">
    <title
       id="title4514">lens</title>
  </circle>
  <path
     d="M 28.8,20 C 27.6,18.6 25.8,17.8 24,17.8 22.2,17.8 20.4,18.6 19.2,20 18.7,20.5 18.8,21.3 19.3,21.8 19.8,22.3 20.6,22.2 21.1,21.7 22.6,20 25.4,20 26.9,21.7 27.2,22 27.5,22.1 27.9,22.1 28.2,22.1 28.5,22 28.8,21.8 29.2,21.4 29.3,20.5 28.8,20 Z"
     id="path10"
     style="fill:#90caf9;"
     inkscape:connector-curvature="0">
    <title
       id="title4516">lens_reflection</title>
  </path>
</svg>
